<svg width="34" height="40" viewBox="0 0 34 40" fill="none" xmlns="http://www.w3.org/2000/svg">
<path d="M33.25 4.89841C33.2188 4.61716 33.0469 4.36716 32.7891 4.25779C32.2031 3.99998 31.8203 3.42185 31.8203 2.78123C31.8203 2.11716 32.2188 1.53123 32.8359 1.28904C33.0938 1.18748 33.2578 0.945288 33.2578 0.67185C33.2578 0.304663 32.9609 0.00778789 32.5938 0.00778789H3.53125C1.99219 -2.4613e-05 0.742188 1.24998 0.742188 2.78123V37.2187C0.742188 38.75 1.99219 40 3.52344 40H30.8828C32.1875 40 33.25 38.9375 33.25 37.6328V35.5078C33.25 18.1484 33.2578 4.96091 33.25 4.89841ZM3.52344 1.17185H31.1484C30.9297 1.47654 30.7812 1.82029 30.7031 2.19529H4.50781C4.1875 2.19529 3.92187 2.46091 3.92187 2.78123C3.92187 3.10154 4.1875 3.36716 4.50781 3.36716H30.7109C30.7891 3.73435 30.9453 4.08591 31.1563 4.3906H3.52344C2.64062 4.3906 1.91406 3.67185 1.91406 2.78123C1.91406 1.8906 2.64062 1.17185 3.52344 1.17185ZM3.52344 38.8281C2.64062 38.8281 1.91406 38.1094 1.91406 37.2187V5.04685C2.36719 5.36716 2.92188 5.56248 3.52344 5.56248H5.41406V12.9297V38.8281H3.52344ZM32.0859 37.6328C32.0859 38.2969 31.5469 38.8281 30.8906 38.8281H6.59375V11.0859V5.56248H32.0938V35.5078V37.0781V37.6328H32.0859Z" fill="#9B51E0"/>
</svg>
