<svg width="40" height="34" viewBox="0 0 40 34" fill="none" xmlns="http://www.w3.org/2000/svg">
<path d="M38.0312 29.2969H34.2188C34.2266 29.2812 34.2266 29.2656 34.2344 29.2578L35.7031 22.875C36.4297 22.8516 37.0156 22.25 37.0156 21.5156V20.6562C37.0156 19.9062 36.4062 19.2891 35.6484 19.2891H30.5391V17.8828C31.4453 18.1016 32.3906 18.0625 33.2266 17.6406C34.4141 17.0391 35.1953 15.7656 35.5469 13.8516C35.6406 13.3203 35.1172 12.8906 34.6172 13.1016C33.125 13.7344 31.8125 12.8359 30.5391 13.8594V13.3125C30.7812 11.1797 29.6172 9.57031 27.2578 9.85156C25.6484 10.0469 25.0781 9.9375 24.9453 9.89844C24.4297 9.75 23.9531 10.2422 24.1172 10.75C24.7031 12.625 25.6328 13.8047 26.8828 14.25C27.6953 14.5391 28.5625 14.4766 29.3672 14.1953V19.2812H26.7031L21.375 10.0469C21.2578 9.84375 21.1953 9.60938 21.1953 9.375V6.14062H21.2344C22.1953 6.14062 22.9766 5.35938 22.9766 4.39844V2.5C22.9766 1.53906 22.1953 0.757812 21.2344 0.757812H12.8672C11.9062 0.757812 11.125 1.53906 11.125 2.5V4.40625C11.125 5.36719 11.9062 6.14844 12.8672 6.14844H12.9062V9.38281C12.9062 9.61719 12.8438 9.85156 12.7266 10.0547L3.40625 26.2109C2.83594 27.2031 2.86719 28.375 3.39844 29.2969H1.96875C0.882813 29.2969 0 30.1875 0 31.2734C0 32.3594 0.882813 33.2422 1.96875 33.2422H38.0312C39.1172 33.2422 40 32.3594 40 31.2734C40 30.1875 39.1172 29.2969 38.0312 29.2969ZM31.1641 14.8672C31.8281 14.1953 32.6016 14.7109 34.2031 14.4297C33.8906 15.5156 33.3828 16.2422 32.6953 16.5938C31.8984 17 31.0078 16.8203 30.5391 16.6719C30.5625 16.1875 30.6797 15.3438 31.1641 14.8672ZM33.4609 27.3594C33.4453 27.3984 33.4297 27.4375 33.4219 27.4766L33.0234 29.1953C33.0156 29.2266 33 29.2656 32.9922 29.2969H26.6562C26.6406 29.2656 26.6328 29.2344 26.625 29.1953L25.1484 22.875H34.5L33.4609 27.3594ZM27.2734 13.1484C26.5469 12.8906 25.9453 12.2109 25.4922 11.1328C25.9922 11.1484 26.6328 11.1094 27.3984 11.0156C28.6797 10.8594 29.4219 11.4063 29.3906 12.9219C28.9844 13.125 28.1172 13.4453 27.2734 13.1484ZM35.6406 20.4609C35.75 20.4609 35.8359 20.5469 35.8359 20.6562V21.5156C35.8359 21.625 35.75 21.7109 35.6406 21.7109H23.9922C23.8828 21.7109 23.7969 21.625 23.7969 21.5156V20.6562C23.7969 20.5469 23.8828 20.4609 23.9922 20.4609H35.6406ZM12.8672 4.97656C12.5547 4.97656 12.2969 4.71875 12.2969 4.40625V2.5C12.2969 2.1875 12.5547 1.92969 12.8672 1.92969H21.2344C21.5469 1.92969 21.8047 2.1875 21.8047 2.5V4.40625C21.8047 4.71875 21.5469 4.97656 21.2344 4.97656H12.8672ZM13.7422 10.6328C13.9609 10.25 14.0781 9.82031 14.0781 9.375V6.14062H20.0234V9.375C20.0234 9.8125 20.1406 10.25 20.3594 10.6328L22.9688 15.1641C22.7812 15.2422 22.625 15.3359 22.4922 15.4141C22.2188 15.5781 22.0391 15.6875 21.6172 15.6875C21.1875 15.6875 21.0078 15.5781 20.7422 15.4141C19.7734 14.8281 18.7812 14.8125 17.7734 15.4141C17.5 15.5781 17.3203 15.6875 16.8984 15.6875C16.4688 15.6875 16.2891 15.5781 16.0234 15.4141C15.0391 14.8203 14.0469 14.8203 13.0547 15.4141C12.7812 15.5781 12.6016 15.6875 12.1797 15.6875C11.75 15.6875 11.5703 15.5781 11.3047 15.4141C11.2344 15.375 11.1562 15.3281 11.0781 15.2812L13.7422 10.6328ZM4.42188 26.7969L10.4766 16.2969C10.5469 16.3281 10.6094 16.375 10.6875 16.4141C11.6562 17 12.6484 17.0156 13.6562 16.4141C13.9297 16.25 14.1094 16.1406 14.5312 16.1406C14.9609 16.1406 15.1406 16.25 15.4062 16.4141C16.375 17 17.3672 17.0156 18.375 16.4141C18.6484 16.25 18.8281 16.1406 19.25 16.1406C20.1719 16.1406 20.2656 16.8516 21.6094 16.8516C22.3594 16.8516 22.7656 16.6094 23.0938 16.4141C23.2578 16.3125 23.3906 16.2344 23.5625 16.1875L25.3438 19.2812H23.9922C23.2422 19.2812 22.625 19.8906 22.625 20.6484V21.5078C22.625 22.2422 23.2109 22.8438 23.9375 22.8672L25.4375 29.2891H13.9531H9.90625H4.9375C4.25 28.7734 3.88281 27.7422 4.42188 26.7969ZM38.0312 32.0703H1.96875C1.53125 32.0703 1.17188 31.7109 1.17188 31.2734C1.17188 30.8359 1.53125 30.4766 1.96875 30.4766H9.90625H13.9531H38.0312C38.4688 30.4766 38.8281 30.8359 38.8281 31.2734C38.8281 31.7109 38.4688 32.0703 38.0312 32.0703Z" fill="#9B51E0"/>
</svg>
