<svg width="40" height="40" viewBox="0 0 40 40" fill="none" xmlns="http://www.w3.org/2000/svg">
<path d="M40 16.7585C40 15.7038 40 10.6647 40 9.36786C40 8.69598 39.4531 8.14911 38.7812 8.14911H37.2656C36.5938 8.14911 36.0469 8.69598 36.0469 9.36786V11.446H34.1641L35.0156 9.0788C35.1484 8.71161 35.0156 8.29755 34.6875 8.07098C36.1484 6.31317 36.2266 3.91473 36.2266 3.8913C36.2422 3.2663 35.5312 2.89911 35.0312 3.27411L33.0469 4.74286C32.9062 3.07098 32.1797 1.23505 31.8516 0.469421C31.5859 -0.147766 30.7031 -0.147766 30.4375 0.469421C30.1094 1.23505 29.3828 3.07098 29.2422 4.74286L27.2578 3.27411C26.7578 2.89911 26.0469 3.2663 26.0625 3.89911C26.0625 3.93036 26.1406 6.3288 27.6016 8.0788C27.2734 8.30536 27.1406 8.71942 27.2734 9.08661L28.125 11.4538H23.0547L23.9062 9.08661C24.0391 8.71942 23.9062 8.30536 23.5781 8.0788C25.0391 6.32098 25.1172 3.92255 25.1172 3.89911C25.1328 3.27411 24.4219 2.90692 23.9219 3.28192L21.9375 4.75067C21.7969 3.0788 21.0703 1.24286 20.7422 0.477234C20.4766 -0.139954 19.5938 -0.139954 19.3281 0.477234C19 1.24286 18.2734 3.0788 18.1328 4.75067L16.1484 3.28192C15.6484 2.90692 14.9375 3.27411 14.9531 3.90692C14.9531 3.93817 15.0312 6.33661 16.4922 8.08661C16.1641 8.31317 16.0312 8.72723 16.1641 9.09442L17.0156 11.4616H11.9453L12.7969 9.09442C12.9297 8.72723 12.7969 8.31317 12.4688 8.08661C13.9297 6.33661 14.0078 3.93036 14.0078 3.90692C14.0234 3.28192 13.3125 2.91473 12.8125 3.28973L10.8281 4.75848C10.6875 3.08661 9.96094 1.25067 9.63281 0.485046C9.36719 -0.132141 8.48438 -0.132141 8.21875 0.485046C7.89062 1.25067 7.16406 3.08661 7.02344 4.75848L4.97656 3.27411C4.47656 2.89911 3.76562 3.27411 3.78125 3.8913C3.78125 3.92255 3.85156 6.32098 5.32031 8.07098C4.99219 8.29755 4.85938 8.71161 4.99219 9.0788L5.84375 11.446H3.95312V9.37567C3.95312 8.7038 3.40625 8.15692 2.73438 8.15692H1.21875C0.546875 8.14911 0 8.69598 0 9.37567C0.0078125 15.5788 0 24.8288 0 38.7663C0 39.4382 0.546875 39.985 1.21875 39.985H2.72656C3.39844 39.985 3.94531 39.4382 3.94531 38.7663V36.8054H32.6016H34.4766H36.0391V38.7663C36.0391 39.4382 36.5859 39.985 37.2578 39.985H38.7656C39.4375 39.985 39.9844 39.4382 39.9844 38.7663C39.9844 34.5944 39.9844 42.0554 39.9844 16.8132C40 16.7975 40 16.7819 40 16.7585ZM37.2656 9.32098H38.7734C38.8047 9.32098 38.8203 9.34442 38.8203 9.36786V11.446H37.2109V9.37567C37.2188 9.34442 37.2422 9.32098 37.2656 9.32098ZM32.9844 6.24286L34.9219 4.81317C34.7344 5.72723 34.2734 7.09442 33.1562 7.93036H32.4375C32.6719 7.46942 32.8828 6.90692 32.9844 6.24286ZM33.7656 9.10223L32.9219 11.4538H29.3516L28.5078 9.10223H33.7656ZM31.1328 1.86786C31.4844 2.8288 31.8906 4.18036 31.8906 5.31317C31.8906 6.44598 31.4766 7.3288 31.1328 7.86786C30.7891 7.3288 30.375 6.4538 30.375 5.31317C30.375 4.17255 30.7812 2.8288 31.1328 1.86786ZM27.3438 4.81317L29.2812 6.25067C29.3906 6.91473 29.6016 7.47723 29.8281 7.93817H29.1094C27.9922 7.08661 27.5312 5.71942 27.3438 4.81317ZM21.8516 6.24286L23.7891 4.80536C23.6016 5.71942 23.1406 7.08661 22.0234 7.92255H21.3047C21.5391 7.46942 21.75 6.90692 21.8516 6.24286ZM22.6328 9.10223L21.7891 11.4538H18.2188L17.375 9.10223H22.6328ZM20 1.86786C20.3516 2.8288 20.7578 4.18036 20.7578 5.31317C20.7578 6.44598 20.3438 7.3288 20 7.86786C19.6562 7.3288 19.2422 6.4538 19.2422 5.31317C19.2422 4.17255 19.6484 2.8288 20 1.86786ZM16.2109 4.81317L18.1484 6.25067C18.2578 6.91473 18.4688 7.47723 18.6953 7.93817H17.9766C16.8594 7.08661 16.3984 5.71942 16.2109 4.81317ZM10.7188 6.24286L12.6562 4.81317C12.4688 5.72723 12.0078 7.09442 10.8906 7.93036H10.1719C10.4062 7.46942 10.6094 6.90692 10.7188 6.24286ZM11.5 9.10223L10.6562 11.4538H7.07812L6.23438 9.10223H11.5ZM8.86719 1.86786C9.21875 2.8288 9.625 4.18036 9.625 5.31317C9.625 6.44598 9.21094 7.3288 8.86719 7.86786C8.52344 7.3288 8.10938 6.4538 8.10938 5.31317C8.10938 4.17255 8.51562 2.8288 8.86719 1.86786ZM5.07812 4.81317L7.01562 6.25067C7.125 6.91473 7.33594 7.47723 7.5625 7.93817H6.84375C5.72656 7.08661 5.26562 5.71942 5.07812 4.81317ZM1.17188 9.37567C1.17188 9.34442 1.19531 9.3288 1.21875 9.3288H2.72656C2.75781 9.3288 2.77344 9.35223 2.77344 9.37567V11.4538H1.17188V9.37567ZM1.17188 30.9069V17.3444H2.78125V30.9069H1.17188ZM2.78125 38.7663C2.78125 38.7976 2.75781 38.8132 2.73438 38.8132H1.21875C1.1875 38.8132 1.17188 38.7897 1.17188 38.7663V36.8054H2.78125V38.7663ZM38.8281 38.7663C38.8281 38.7976 38.8047 38.8132 38.7812 38.8132H37.2656C37.2344 38.8132 37.2188 38.7897 37.2188 38.7663V36.8054H38.8281V38.7663ZM38.8281 35.6335H34.4844H32.6094H1.17969V32.0866H38.8281V35.6335ZM10.125 17.3444H15.5312H36.0391V22.7897C35.7812 22.485 35.3438 22.4304 35.0156 22.6725L33.0312 24.1413C32.8906 22.4694 32.1641 20.6335 31.8359 19.8679C31.5703 19.2507 30.6875 19.2507 30.4219 19.8679C30.0938 20.6335 29.3672 22.4694 29.2266 24.1413L27.2422 22.6725C26.7422 22.2975 26.0312 22.6725 26.0469 23.2897C26.0469 23.321 26.125 25.7194 27.5859 27.4694C27.2578 27.696 27.125 28.11 27.2578 28.4772L28.125 30.8991H23.0156L23.8828 28.4772C24.0156 28.11 23.8906 27.6804 23.5312 27.4538C24.9844 25.7038 25.0547 23.3132 25.0547 23.2819C25.0703 22.6569 24.3594 22.2897 23.8594 22.6647L21.875 24.1335C21.7344 22.4616 21.0078 20.6257 20.6797 19.86C20.4141 19.2429 19.5312 19.2429 19.2656 19.86C18.9375 20.6257 18.2109 22.4616 18.0703 24.1335L16.0859 22.6647C15.5859 22.2897 14.875 22.6647 14.8906 23.2819C14.8906 23.3132 14.9688 25.7272 16.4375 27.485C16.1094 27.7194 16.0078 28.1335 16.1328 28.4772L17 30.8991H11.875L12.7422 28.4772C12.875 28.11 12.7422 27.696 12.4141 27.4694C13.875 25.7194 13.9531 23.3132 13.9531 23.2897C13.9688 22.6647 13.2578 22.2975 12.7578 22.6725L10.7734 24.1413C10.6328 22.4694 9.90625 20.6335 9.57812 19.8679C9.3125 19.2507 8.42969 19.2507 8.16406 19.8679C7.83594 20.6335 7.10937 22.4694 6.96875 24.1413L4.98438 22.6725C4.65625 22.4304 4.21094 22.4929 3.96094 22.7975V17.3444H10.125ZM33.7656 28.5007L32.8984 30.9069H29.3672L28.5 28.5007H33.7656ZM27.3438 24.2116L29.2812 25.6491C29.3906 26.3132 29.6016 26.8757 29.8281 27.3366H29.1094C27.9922 26.485 27.5312 25.1179 27.3438 24.2116ZM30.375 24.7116C30.375 23.5788 30.7812 22.2272 31.1328 21.2663C31.4844 22.2272 31.8906 23.5788 31.8906 24.7116C31.8906 25.8444 31.4766 26.7272 31.1328 27.2663C30.7891 26.7272 30.375 25.8444 30.375 24.7116ZM33.1562 27.3288H32.4375C32.6641 26.8679 32.875 26.3054 32.9844 25.6413L34.9219 24.2038C34.7344 25.1179 34.2734 26.485 33.1562 27.3288ZM34.6875 27.4772C35.4766 26.5319 35.8594 25.4069 36.0469 24.5554V30.9069H34.1406L35.0078 28.485C35.1484 28.1179 35.0156 27.7038 34.6875 27.4772ZM22.6328 28.5007L21.7656 30.9069H18.2344L17.3672 28.5007H22.6328ZM16.1719 24.2116L18.1094 25.6491C18.2188 26.3132 18.4297 26.8757 18.6562 27.3366H17.9375C16.8203 26.485 16.3594 25.1179 16.1719 24.2116ZM19.2031 24.7116C19.2031 23.5788 19.6094 22.2272 19.9609 21.2663C20.3125 22.2272 20.7188 23.5788 20.7188 24.7116C20.7188 25.8444 20.3047 26.7272 19.9609 27.2663C19.6172 26.7272 19.2031 25.8444 19.2031 24.7116ZM21.9844 27.3288H21.2656C21.4922 26.8679 21.7031 26.3054 21.8125 25.6413L23.75 24.2038C23.5703 25.1179 23.1016 26.485 21.9844 27.3288ZM6.64844 28.5007C6.6875 28.5007 7.35938 28.5007 11.4922 28.5007L10.625 30.9069H7.10156L6.23438 28.5007H6.64844ZM5.07812 24.2116L7.01562 25.6491C7.125 26.3132 7.33594 26.8757 7.5625 27.3366H6.84375C5.72656 26.485 5.26562 25.1179 5.07812 24.2116ZM8.10938 24.7116C8.10938 23.5788 8.51562 22.2272 8.86719 21.2663C9.21875 22.2272 9.625 23.5788 9.625 24.7116C9.625 25.8444 9.21094 26.7272 8.86719 27.2663C8.52344 26.7272 8.10938 25.8444 8.10938 24.7116ZM10.8906 27.3288H10.1719C10.3984 26.8679 10.6094 26.3054 10.7188 25.6413L12.6562 24.2038C12.4688 25.1179 12.0078 26.485 10.8906 27.3288ZM5.3125 27.4772C4.98438 27.7038 4.85156 28.1179 4.98438 28.485L5.85156 30.9069H3.95312V24.5475C4.14062 25.3991 4.52344 26.5319 5.3125 27.4772ZM37.2188 30.9069V17.3444H38.8281V30.9069H37.2188ZM38.8281 16.1725H15.5391H10.1328H1.17969V12.6257H38.8281V16.1725Z" fill="#9B51E0"/>
</svg>
