<svg width="175" height="47" viewBox="0 0 175 47" fill="none" xmlns="http://www.w3.org/2000/svg">
    <path d="M0 0.703999H23.04V2.112H16.256V44.096H18.56C22.1867 44.096 25.0667 42.9867 27.2 40.768C29.376 38.5493 31.5733 35.136 33.792 30.528H35.136L33.92 45.504H0V44.096H3.776V2.112H0V0.703999Z" fill="#9B51E0"/>
    <path d="M68.22 25.728V20.992C68.22 13.184 67.836 8.256 67.068 6.208C66.2147 3.86133 64.9987 2.41067 63.42 1.856C62.524 1.51467 61.436 1.344 60.156 1.344C58.876 1.344 57.7667 1.51467 56.828 1.856C55.932 2.19733 55.1853 2.79467 54.588 3.648C53.9907 4.50133 53.5 5.39733 53.116 6.336C52.7747 7.27467 52.4973 8.59733 52.284 10.304C52.028 12.7787 51.9 16.4267 51.9 21.248V25.856C51.9 31.0613 52.092 34.7733 52.476 36.992C52.9027 39.168 53.4147 40.7253 54.012 41.664C55.3347 43.7547 57.3827 44.8 60.156 44.8C63.5267 44.8 65.7027 43.392 66.684 40.576C67.708 37.7173 68.22 32.768 68.22 25.728ZM60.028 46.144C52.9027 46.144 47.5693 44.224 44.028 40.384C40.5293 36.5013 38.78 30.912 38.78 23.616C38.78 16.2773 40.6573 10.5173 44.412 6.336C48.2093 2.112 53.564 0 60.476 0C67.388 0 72.5933 2.00533 76.092 6.016C79.6333 9.984 81.404 15.6373 81.404 22.976C81.404 30.3147 79.612 36.0107 76.028 40.064C72.4867 44.1173 67.1533 46.144 60.028 46.144Z" fill="#9B51E0"/>
    <path d="M108.991 44.864C111.082 44.864 112.404 44.48 112.959 43.712C113.556 42.944 113.855 41.6427 113.855 39.808V27.392H109.759V25.984H128.191V27.392H125.695V45.44H124.735C123.967 44.3733 122.879 43.84 121.471 43.84C120.874 43.84 119.082 44.224 116.095 44.992C113.151 45.76 110.634 46.144 108.543 46.144C101.588 46.144 96.191 44.2667 92.351 40.512C88.5537 36.7573 86.655 31.1253 86.655 23.616C86.655 16.064 88.639 10.24 92.607 6.144C96.6177 2.048 101.994 0 108.735 0C111.338 0 113.94 0.341333 116.543 1.024C119.188 1.664 120.724 1.984 121.151 1.984C121.578 1.984 121.898 1.89867 122.111 1.728C122.324 1.51467 122.559 1.17333 122.815 0.703999H123.519L124.031 14.592H122.879C120.788 10.4533 118.676 7.21067 116.543 4.864C114.452 2.47467 112.106 1.28 109.503 1.28C102.975 1.28 99.711 7.65867 99.711 20.416V25.472C99.711 31.872 100.5 36.7147 102.079 40C103.7 43.2427 106.004 44.864 108.991 44.864Z" fill="#9B51E0"/>
    <path d="M161.533 25.728V20.992C161.533 13.184 161.149 8.256 160.381 6.208C159.527 3.86133 158.311 2.41067 156.733 1.856C155.837 1.51467 154.749 1.344 153.469 1.344C152.189 1.344 151.079 1.51467 150.141 1.856C149.245 2.19733 148.498 2.79467 147.901 3.648C147.303 4.50133 146.813 5.39733 146.429 6.336C146.087 7.27467 145.81 8.59733 145.597 10.304C145.341 12.7787 145.213 16.4267 145.213 21.248V25.856C145.213 31.0613 145.405 34.7733 145.789 36.992C146.215 39.168 146.727 40.7253 147.325 41.664C148.647 43.7547 150.695 44.8 153.469 44.8C156.839 44.8 159.015 43.392 159.997 40.576C161.021 37.7173 161.533 32.768 161.533 25.728ZM153.341 46.144C146.215 46.144 140.882 44.224 137.34 40.384C133.842 36.5013 132.092 30.912 132.092 23.616C132.092 16.2773 133.97 10.5173 137.725 6.336C141.522 2.112 146.877 0 153.789 0C160.701 0 165.906 2.00533 169.405 6.016C172.946 9.984 174.717 15.6373 174.717 22.976C174.717 30.3147 172.925 36.0107 169.341 40.064C165.799 44.1173 160.466 46.144 153.341 46.144Z" fill="#9B51E0"/>
</svg>