<svg width="32" height="40" viewBox="0 0 32 40" fill="none" xmlns="http://www.w3.org/2000/svg">
<path d="M31.8672 11.9688C31.8672 11.9375 31.8672 11.9062 31.8672 11.875C31.8594 11.5703 31.7109 11.2734 31.4609 11.0938C31.3672 11.0234 31.2578 10.9688 31.1328 10.9297C30.5859 10.7734 29.6719 10.5703 28.5625 10.5C27.0312 10.4062 25.1328 10.5781 23.2891 11.5156C19.3359 13.5312 18.0469 16.7969 17.7656 17.6719C17.5156 17.8594 17.0547 18.25 16.6016 18.8203V15.9062C17.9766 14.6875 18.9062 13.2344 19.3594 11.5781C19.75 10.1484 19.7812 8.57812 19.4687 6.89062C18.9141 3.9375 17.4141 1.40625 16.7891 0.460938C16.625 0.203125 16.25 0 16.0156 0C16.0078 0 16.0078 0 16 0C15.9922 0 15.9922 0 15.9844 0C15.75 0 15.3828 0.203125 15.2109 0.460938C14.5937 1.41406 13.0938 3.9375 12.5312 6.89062C12.2109 8.57812 12.25 10.1562 12.6406 11.5781C13.0937 13.2344 14.0156 14.6875 15.3984 15.9062V18.8203C14.9453 18.2422 14.4844 17.8594 14.2344 17.6719C13.9531 16.8047 12.6641 13.5312 8.71094 11.5156C6.86719 10.5781 4.96094 10.4062 3.4375 10.5C2.32812 10.5703 1.41406 10.7734 0.867187 10.9297C0.742187 10.9609 0.632812 11.0234 0.539062 11.0938C0.289062 11.2734 0.140625 11.5703 0.132812 11.875C0.132812 11.9062 0.132812 11.9375 0.132812 11.9688V11.9766C0.148437 12.1328 0.195312 12.2969 0.289062 12.4453C1.14844 13.7969 2.88281 15.7422 5.16406 17.1484C5.9375 17.625 6.72656 18.0078 7.52344 18.3047C7.60156 18.3359 7.67969 18.3594 7.75781 18.3906C7.77344 18.3984 7.78906 18.3984 7.80469 18.4062C8.92969 18.7891 10.0547 18.9844 11.1797 18.9844C11.9922 18.9844 12.8047 18.8828 13.6094 18.6797C13.9844 18.9766 14.7812 19.7266 15.1875 20.8438H11.5703H11.5625C10.8203 20.8438 10.2187 21.4453 10.2187 22.1875V23.2031C10.2187 23.8203 10.6406 24.3438 11.2109 24.5C10.9766 25.2812 10.5078 25.9688 9.85156 26.4766C8.57031 27.4688 7.86719 29.0078 7.86719 30.5234V33.2266C7.86719 33.2656 7.86719 33.2969 7.875 33.3359V35.8672C7.86719 35.8984 7.86719 35.9375 7.86719 35.9688V37.1094C7.86719 38.7031 9.16406 40 10.7578 40H10.7656H21.2656H21.2734C22.8672 40 24.1641 38.7031 24.1641 37.1094V35.9531C24.1641 35.9141 24.1641 35.8828 24.1562 35.8516V33.3203C24.1641 33.2891 24.1641 33.25 24.1641 33.2109V30.5078C24.1641 28.9922 23.4609 27.4531 22.1797 26.4609C21.5234 25.9531 21.0547 25.2656 20.8203 24.4844C21.3906 24.3281 21.8125 23.8047 21.8125 23.1875V22.1719C21.8125 21.4297 21.2109 20.8281 20.4688 20.8281H20.4609H16.8437C17.2422 19.7109 18.0469 18.9688 18.4219 18.6641C19.2266 18.8672 20.0391 18.9688 20.8516 18.9688C21.9766 18.9688 23.1016 18.7734 24.2266 18.3906C24.2422 18.3828 24.2578 18.3828 24.2734 18.375C24.3516 18.3516 24.4297 18.3203 24.5078 18.2891C25.3047 18 26.0937 17.6172 26.8672 17.1328C29.1484 15.7266 30.8828 13.7812 31.7422 12.4297C31.8359 12.2813 31.8828 12.125 31.8984 11.9609C31.8672 11.9766 31.8672 11.9688 31.8672 11.9688ZM29.1172 11.7266C27.4297 12.2891 24.9531 13.2812 22.0703 14.9141C21.2969 15.3516 20.5 15.8281 19.6875 16.3594C20.4062 15.1797 21.6797 13.6641 23.8359 12.5625C25.5078 11.7109 27.2422 11.5781 28.625 11.6797C28.7969 11.6953 28.9609 11.7109 29.1172 11.7266ZM18.7109 29.2891C18.6562 29.2891 18.6016 29.2891 18.5469 29.2969C18.5391 29.2969 18.5312 29.2969 18.5156 29.2969C18.0469 29.3203 17.5781 29.4375 17.1016 29.6484C16.7188 29.8203 16.3516 29.9062 15.9922 29.9062C15.625 29.9062 15.2656 29.8203 14.8828 29.6484C14.4141 29.4375 13.9453 29.3203 13.4688 29.2969C13.4609 29.2969 13.4531 29.2969 13.4375 29.2969C13.3828 29.2969 13.3281 29.2891 13.2734 29.2891C13.2266 29.2891 13.1719 29.2891 13.125 29.2891C13.1094 29.2891 13.0937 29.2891 13.0859 29.2891C12.6172 29.3125 12.1484 29.4297 11.6797 29.6406C11.2969 29.8125 10.9297 29.8984 10.5703 29.8984C10.2031 29.8984 9.84375 29.8125 9.46094 29.6406C9.36719 29.6016 9.26562 29.5547 9.15625 29.5156C9.375 28.6797 9.86719 27.9219 10.5547 27.3906C11.4844 26.6719 12.125 25.6719 12.3984 24.5391H19.5859C19.8594 25.6719 20.5 26.6719 21.4297 27.3906C22.1172 27.9297 22.6094 28.6797 22.8281 29.5156C22.7187 29.5547 22.6172 29.6016 22.5234 29.6406C22.1406 29.8125 21.7734 29.8984 21.4141 29.8984C21.0469 29.8984 20.6875 29.8125 20.3047 29.6406C19.8359 29.4297 19.3672 29.3125 18.8984 29.2891C18.8828 29.2891 18.8672 29.2891 18.8594 29.2891C18.8125 29.2891 18.7578 29.2891 18.7109 29.2891ZM20.6094 23.1953C20.6094 23.2891 20.5312 23.3672 20.4375 23.3672H11.5625C11.4687 23.3672 11.3906 23.2891 11.3906 23.1953V22.1797C11.3906 22.0859 11.4687 22.0078 11.5625 22.0078H20.4375C20.5312 22.0078 20.6094 22.0859 20.6094 22.1797V23.1953ZM15.3984 14.2188C13.75 12.3281 13.1875 9.9375 13.7187 7.10938C14.0547 5.3125 14.7734 3.67969 15.3984 2.50781V14.2188ZM18.2812 7.10938C18.8125 9.94531 18.25 12.3281 16.6016 14.2188V2.50781C17.2188 3.67969 17.9453 5.3125 18.2812 7.10938ZM3.375 11.6797C4.75781 11.5781 6.5 11.7109 8.16406 12.5625C10.3125 13.6641 11.5859 15.1797 12.3125 16.3594C11.4922 15.8281 10.6953 15.3516 9.92187 14.9141C7.03906 13.2812 4.5625 12.2891 2.875 11.7266C3.03906 11.7109 3.20312 11.6953 3.375 11.6797ZM4.85156 15.5234C4.83594 15.5078 4.82031 15.4922 4.80469 15.4844C3.57812 14.5703 2.57031 13.5234 1.88281 12.6484C3.88281 13.2734 7.78906 14.75 12.2578 17.7422C12.1172 17.7578 11.9766 17.7734 11.8359 17.7812C11.8203 17.7812 11.7969 17.7812 11.7812 17.7891C11.6719 17.7969 11.5625 17.8047 11.4531 17.8047C11.4219 17.8047 11.3984 17.8047 11.3672 17.8047C11.3125 17.8047 11.2656 17.8047 11.2109 17.8047C11.1641 17.8047 11.125 17.8047 11.0781 17.8047C11.0234 17.8047 10.9766 17.8047 10.9219 17.8047C10.8437 17.8047 10.7734 17.7969 10.6953 17.7969C10.6562 17.7969 10.625 17.7891 10.5859 17.7891C10.5078 17.7812 10.4375 17.7812 10.3594 17.7734C10.3437 17.7734 10.3203 17.7734 10.3047 17.7656C10.2109 17.7578 10.1094 17.7422 10.0156 17.7344C10 17.7344 9.98437 17.7266 9.96094 17.7266C8.99219 17.5938 8.01562 17.2969 7.04687 16.8438C7.03125 16.8359 7.00781 16.8281 6.99219 16.8203C6.22656 16.4453 5.50781 16 4.85156 15.5234ZM10.75 38.8281C9.80469 38.8281 9.03125 38.0547 9.03125 37.1094V30.7344C9.39844 30.8984 9.78125 31 10.1719 31.0469C10.8203 31.1172 11.4922 31.0156 12.1797 30.7109C12.5625 30.5391 12.9297 30.4531 13.2891 30.4531C13.6562 30.4531 14.0156 30.5391 14.3984 30.7109C14.9375 30.9531 15.4687 31.0703 16 31.0703C16.5312 31.0703 17.0625 30.9531 17.6016 30.7109C17.9844 30.5391 18.3516 30.4531 18.7109 30.4531C19.0781 30.4531 19.4375 30.5391 19.8203 30.7109C20.5078 31.0156 21.1797 31.125 21.8281 31.0469C22.2187 31.0078 22.5938 30.8984 22.9688 30.7344V37.1094C22.9688 38.0547 22.1953 38.8281 21.25 38.8281H10.75ZM25 16.8125C24.9844 16.8203 24.9609 16.8281 24.9453 16.8359C23.9766 17.2891 23 17.5859 22.0312 17.7188C22.0156 17.7188 22 17.7266 21.9766 17.7266C21.8828 17.7422 21.7812 17.75 21.6875 17.7578C21.6719 17.7578 21.6484 17.7578 21.6328 17.7656C21.5547 17.7734 21.4844 17.7812 21.4062 17.7812C21.3672 17.7812 21.3359 17.7891 21.2969 17.7891C21.2187 17.7969 21.1484 17.7969 21.0703 17.7969C21.0156 17.7969 20.9687 17.7969 20.9141 17.7969C20.8672 17.7969 20.8281 17.7969 20.7812 17.7969C20.7266 17.7969 20.6797 17.7969 20.625 17.7969C20.5938 17.7969 20.5703 17.7969 20.5391 17.7969C20.4297 17.7969 20.3203 17.7891 20.2109 17.7812C20.1953 17.7812 20.1719 17.7812 20.1562 17.7734C20.0156 17.7656 19.875 17.75 19.7344 17.7344C24.2031 14.7422 28.1094 13.2734 30.1094 12.6406C29.4219 13.5156 28.4141 14.5625 27.1875 15.4766C27.1719 15.4922 27.1562 15.5 27.1406 15.5156C26.4922 16 25.7734 16.4453 25 16.8125Z" fill="#9B51E0"/>
</svg>
